<?xml version="1.0" encoding="utf-8"?>
<!-- Generator: Adobe Illustrator 16.0.0, SVG Export Plug-In . SVG Version: 6.00 Build 0)  -->
<!DOCTYPE svg PUBLIC "-//W3C//DTD SVG 1.1//EN" "http://www.w3.org/Graphics/SVG/1.1/DTD/svg11.dtd">
<svg version="1.1" id="Layer_1" xmlns="http://www.w3.org/2000/svg" xmlns:xlink="http://www.w3.org/1999/xlink" x="0px" y="0px"
	 width="322.509px" height="113.293px" viewBox="0 0 322.509 113.293" enable-background="new 0 0 322.509 113.293"
	 xml:space="preserve">
<g>
	<path fill="#6B6B6B" d="M114.125,12.235c1.309-1.155,3.235,0.616,2.003,1.772L93.171,34.344l24.266,25.345
		c1.387,1.233-0.693,2.928-1.848,1.694L91.322,35.961l-10.245,9.091v15.485c0,0.691-0.54,1.231-1.31,1.231
		c-0.694,0-1.31-0.54-1.31-1.231V13.236c0-0.693,0.616-1.31,1.31-1.31c0.77,0,1.31,0.617,1.31,1.31v28.812L114.125,12.235z"/>
	<path fill="#6B6B6B" d="M128.836,31.957c1.694-5.855,7.549-9.861,13.943-9.861c0.848,0,1.387,0.462,1.387,1.31
		c0,0.847-0.539,1.31-1.387,1.31c-9.861,0-13.943,8.396-13.943,17.718v17.795c0,0.849-0.616,1.388-1.31,1.388
		c-0.848,0-1.387-0.539-1.387-1.388V23.405c0-0.693,0.539-1.31,1.387-1.31c0.694,0,1.31,0.617,1.31,1.31V31.957z"/>
	<path fill="#6B6B6B" d="M167.737,21.71c3.313,0.077,6.473,0.847,9.244,2.465c2.543,1.695,4.469,4.083,5.624,7.165v-7.78
		c0-0.848,0.462-1.387,1.311-1.387c0.846,0,1.387,0.539,1.387,1.387v36.9c0,0.846-0.541,1.385-1.387,1.385
		c-0.849,0-1.311-0.539-1.311-1.385v-7.782c-1.155,3.082-3.081,5.47-5.624,7.165c-4.853,2.85-11.016,3.544-16.87,1.156
		c-8.32-3.391-12.48-11.017-12.249-20.03c0.231-7.78,4.391-14.944,11.709-17.795C162.113,22.096,164.811,21.634,167.737,21.71
		 M182.605,45.36v-6.701c-0.309-5.624-2.927-10.245-8.012-12.71c-2.234-1.003-4.468-1.465-6.856-1.542
		c-6.548-0.077-13.173,3.39-15.792,9.784c-0.848,2.003-1.31,4.469-1.387,6.702c-0.231,5.933,1.772,11.401,6.779,15.407
		c2.696,2.08,6.009,3.236,9.476,3.467c2.696,0.077,5.238-0.539,7.78-1.693C179.679,55.606,182.297,50.984,182.605,45.36"/>
	<path fill="#6B6B6B" d="M194.003,23.791c-0.386-1.54,1.617-2.542,2.619-0.924l17.487,34.588l17.103-34.588
		c0.77-1.926,3.543-0.771,2.618,0.924l-26.114,51.614c-1.003,2.079-3.159,1.078-2.466-0.848l7.164-14.482L194.003,23.791z"/>
	<path fill="#6B6B6B" d="M258.71,22.25c2.003,0,2.003,2.465,0,2.465h-10.707v23.648c0,5.548,0.924,11.248,8.088,11.248
		c1.464,0,3.544-0.539,4.622-1.154c1.618-0.771,3.082,1.231,1.001,2.31c-1.926,1.002-3.697,1.311-5.623,1.311
		c-8.628,0-10.708-6.549-10.708-13.714V24.715h-7.164c-2.08,0-2.08-2.465,0-2.465h7.164v-9.861c0-1.695,2.62-1.618,2.62,0v9.861
		H258.71z"/>
	<path fill="#6B6B6B" d="M274.192,17.012c0,1.694-2.851,1.694-2.851,0v-4.314c0-1.695,2.851-1.695,2.851,0V17.012z M271.419,23.406
		c0-1.849,2.696-1.849,2.696-0.077v37.516c0,1.85-2.696,1.85-2.696,0V23.406z"/>
	<path fill="#6B6B6B" d="M283.127,24.33c-1.54-1.463,0.463-3.389,1.926-1.926l14.637,17.565l15.715-17.718
		c1.001-1.464,3.236,0.153,2.081,1.694l-15.793,17.718l16.409,18.104c1.309,1.694-0.848,3.236-2.157,1.617l-16.255-17.949
		l-15.099,17.872c-1.54,1.619-3.543-0.229-1.926-1.926l15.177-17.718L283.127,24.33z"/>
	<g>
		<defs>
			<polygon id="SVGID_1_" points="21.352,5 21.351,21.738 49.412,21.739 49.412,49.798 66.149,49.797 66.149,5 			"/>
		</defs>
		<clipPath id="SVGID_2_">
			<use xlink:href="#SVGID_1_"  overflow="visible"/>
		</clipPath>
		
			<linearGradient id="SVGID_3_" gradientUnits="userSpaceOnUse" x1="0.2041" y1="494.2168" x2="1.2045" y2="494.2168" gradientTransform="matrix(-39.8225 39.8225 39.8225 39.8225 -19595.1484 -19695.6484)">
			<stop  offset="0" style="stop-color:#C1C1C1"/>
			<stop  offset="0.5188" style="stop-color:#8E8E8E"/>
			<stop  offset="0.9991" style="stop-color:#6B6B6B"/>
			<stop  offset="1" style="stop-color:#6B6B6B"/>
		</linearGradient>
		<polygon clip-path="url(#SVGID_2_)" fill="url(#SVGID_3_)" points="88.549,27.399 43.75,72.199 -1.049,27.399 43.75,-17.4 		"/>
	</g>
	<g>
		<defs>
			<polygon id="SVGID_4_" points="49.412,21.739 49.412,49.798 66.149,49.797 66.149,5 			"/>
		</defs>
		<clipPath id="SVGID_5_">
			<use xlink:href="#SVGID_4_"  overflow="visible"/>
		</clipPath>
		
			<linearGradient id="SVGID_6_" gradientUnits="userSpaceOnUse" x1="5.5171" y1="502.4004" x2="6.5171" y2="502.4004" gradientTransform="matrix(-21.5965 -49.6719 -49.6719 21.5965 25143.5625 -10522.3779)">
			<stop  offset="0" style="stop-color:#C1C1C1"/>
			<stop  offset="0.5188" style="stop-color:#8E8E8E"/>
			<stop  offset="0.9991" style="stop-color:#6B6B6B"/>
			<stop  offset="1" style="stop-color:#6B6B6B"/>
		</linearGradient>
		<polygon clip-path="url(#SVGID_5_)" fill="url(#SVGID_6_)" points="52.073,55.919 33.03,12.122 63.488,-1.121 82.531,42.676 		"/>
	</g>
	<g>
		<defs>
			<polygon id="SVGID_7_" points="4.613,21.739 4.61,66.538 49.412,66.536 49.412,49.798 21.351,49.798 21.351,21.738 			"/>
		</defs>
		<clipPath id="SVGID_8_">
			<use xlink:href="#SVGID_7_"  overflow="visible"/>
		</clipPath>
		
			<linearGradient id="SVGID_9_" gradientUnits="userSpaceOnUse" x1="-0.2593" y1="507.3477" x2="0.7407" y2="507.3477" gradientTransform="matrix(31.3476 -31.3476 -31.3476 -31.3476 15916.4707 15962.8623)">
			<stop  offset="0" style="stop-color:#A2D6F2"/>
			<stop  offset="0.0124" style="stop-color:#A2D6F2"/>
			<stop  offset="0.6496" style="stop-color:#3498DB"/>
			<stop  offset="1" style="stop-color:#2380B5"/>
		</linearGradient>
		<polygon clip-path="url(#SVGID_8_)" fill="url(#SVGID_9_)" points="-17.79,44.138 27.011,-0.663 71.812,44.138 27.011,88.938 		
			"/>
	</g>
	<g>
		<defs>
			<polygon id="SVGID_10_" points="21.351,49.798 4.61,66.538 49.412,66.536 49.412,49.798 			"/>
		</defs>
		<clipPath id="SVGID_11_">
			<use xlink:href="#SVGID_10_"  overflow="visible"/>
		</clipPath>
		
			<linearGradient id="SVGID_12_" gradientUnits="userSpaceOnUse" x1="5.5127" y1="498.1543" x2="6.5127" y2="498.1543" gradientTransform="matrix(-51.0261 -23.2182 -23.2182 51.0261 11907.0977 -25217.9043)">
			<stop  offset="0" style="stop-color:#A2D6F2"/>
			<stop  offset="0.0124" style="stop-color:#A2D6F2"/>
			<stop  offset="0.6496" style="stop-color:#3498DB"/>
			<stop  offset="1" style="stop-color:#2380B5"/>
		</linearGradient>
		<polygon clip-path="url(#SVGID_11_)" fill="url(#SVGID_12_)" points="41.727,83.426 -1.7,63.667 12.295,32.91 55.722,52.67 		"/>
	</g>
	<g>
		<defs>
			<polygon id="SVGID_13_" points="49.412,49.799 21.351,49.8 21.352,66.538 66.149,66.538 66.149,21.741 49.412,21.74 			"/>
		</defs>
		<clipPath id="SVGID_14_">
			<use xlink:href="#SVGID_13_"  overflow="visible"/>
		</clipPath>
		
			<linearGradient id="SVGID_15_" gradientUnits="userSpaceOnUse" x1="5.7837" y1="500.2051" x2="6.7837" y2="500.2051" gradientTransform="matrix(-39.8225 -39.8225 -39.8225 39.8225 20227.3984 -19611.0234)">
			<stop  offset="0" style="stop-color:#C1C1C1"/>
			<stop  offset="0.5188" style="stop-color:#8E8E8E"/>
			<stop  offset="0.9991" style="stop-color:#6B6B6B"/>
			<stop  offset="1" style="stop-color:#6B6B6B"/>
		</linearGradient>
		<polygon clip-path="url(#SVGID_14_)" fill="url(#SVGID_15_)" points="43.75,88.937 -1.048,44.139 43.75,-0.66 88.548,44.139 		"/>
	</g>
	<g>
		<defs>
			<polygon id="SVGID_16_" points="21.351,49.8 21.352,66.538 66.149,66.538 49.412,49.799 			"/>
		</defs>
		<clipPath id="SVGID_17_">
			<use xlink:href="#SVGID_16_"  overflow="visible"/>
		</clipPath>
		
			<linearGradient id="SVGID_18_" gradientUnits="userSpaceOnUse" x1="-2.4014" y1="505.5156" x2="-1.4014" y2="505.5156" gradientTransform="matrix(49.6719 -21.5965 -21.5965 -49.6719 11054.1436 25127.6875)">
			<stop  offset="0" style="stop-color:#C1C1C1"/>
			<stop  offset="0.5188" style="stop-color:#8E8E8E"/>
			<stop  offset="0.9991" style="stop-color:#6B6B6B"/>
			<stop  offset="1" style="stop-color:#6B6B6B"/>
		</linearGradient>
		<polygon clip-path="url(#SVGID_17_)" fill="url(#SVGID_18_)" points="15.23,52.46 59.027,33.418 72.27,63.876 28.473,82.919 		"/>
	</g>
	<g>
		<defs>
			<polygon id="SVGID_19_" points="4.613,49.799 21.351,49.8 21.351,21.74 49.412,21.74 49.412,5.002 4.61,5 			"/>
		</defs>
		<clipPath id="SVGID_20_">
			<use xlink:href="#SVGID_19_"  overflow="visible"/>
		</clipPath>
		
			<linearGradient id="SVGID_21_" gradientUnits="userSpaceOnUse" x1="-7.3467" y1="499.7402" x2="-6.3467" y2="499.7402" gradientTransform="matrix(31.3476 31.3476 31.3476 -31.3476 -15431.1123 15900.5977)">
			<stop  offset="0" style="stop-color:#A2D6F2"/>
			<stop  offset="0.0124" style="stop-color:#A2D6F2"/>
			<stop  offset="0.6496" style="stop-color:#3498DB"/>
			<stop  offset="1" style="stop-color:#2380B5"/>
		</linearGradient>
		<polygon clip-path="url(#SVGID_20_)" fill="url(#SVGID_21_)" points="27.011,-17.401 71.812,27.4 27.011,72.202 -17.79,27.4 		"/>
	</g>
	<g>
		<defs>
			<polygon id="SVGID_22_" points="4.613,49.799 21.351,49.8 21.351,21.74 4.61,5 			"/>
		</defs>
		<clipPath id="SVGID_23_">
			<use xlink:href="#SVGID_22_"  overflow="visible"/>
		</clipPath>
		
			<linearGradient id="SVGID_24_" gradientUnits="userSpaceOnUse" x1="1.8457" y1="505.5127" x2="2.8457" y2="505.5127" gradientTransform="matrix(23.2182 -51.0261 -51.0261 -23.2182 25749.6699 11891.2227)">
			<stop  offset="0" style="stop-color:#A2D6F2"/>
			<stop  offset="0.0124" style="stop-color:#A2D6F2"/>
			<stop  offset="0.6496" style="stop-color:#3498DB"/>
			<stop  offset="1" style="stop-color:#2380B5"/>
		</linearGradient>
		<polygon clip-path="url(#SVGID_23_)" fill="url(#SVGID_24_)" points="-12.278,42.116 7.482,-1.311 38.239,12.685 18.479,56.112 		
			"/>
	</g>
	<path fill="#3498DB" d="M4.611,81.741c0-0.607,0.478-1.128,1.085-1.128h18.96c0.911,0,0.955,1.302,0,1.302H5.999V95.06h17.789
		c0.912,0,0.912,1.258,0,1.258H5.999v11.455c0,0.954-1.388,0.954-1.388,0.043V81.741z"/>
	<path fill="#3498DB" d="M31.337,98.01v9.589c0,0.954-1.432,0.954-1.432,0.044V81.306c0-0.434,0.304-0.736,0.738-0.736h10.934
		c7.332,0,11.063,4.121,11.063,9.023c0,4.686-3.124,7.983-9.458,8.46l8.981,9.242c0.694,0.737-0.217,1.693-0.911,0.998L41.49,98.01
		H31.337z M31.337,96.752H41.62c6.725,0,9.632-3.211,9.545-7.159c-0.044-4.252-3.601-7.679-9.545-7.679H31.337V96.752z"/>
	<path fill="#3498DB" d="M57.672,93.932c0.217-6.725,4.382-12.669,11.194-13.753c1.518-0.218,3.167-0.218,4.685,0
		c6.856,1.084,11.541,7.028,11.715,13.753c0.26,8.374-6.248,14.796-13.797,14.796C63.963,108.728,57.455,102.306,57.672,93.932
		 M59.147,93.976c-0.217,7.462,5.597,13.406,12.322,13.406c6.768,0,12.582-5.944,12.365-13.406
		c-0.173-6.075-4.338-11.454-10.499-12.409c-1.389-0.217-2.864-0.217-4.253,0C62.965,82.522,59.32,87.901,59.147,93.976"/>
	<path fill="#3498DB" d="M111.948,81.22c0-1.085,1.475-1.085,1.475,0v26.118c0,1.042-0.954,1.042-1.518,0.347l-18.873-24.6v24.34
		c0,1.042-1.432,1.042-1.432,0V81.349c0-1.084,0.911-1.214,1.518-0.433l18.83,24.6V81.22z"/>
	<path fill="#3498DB" d="M142.058,80.569c1.041,0,1.041,1.302,0,1.302h-11.237l0.043,25.685c0,0.565-0.434,0.825-0.781,0.825
		s-0.737-0.26-0.737-0.825V81.871h-11.194c-1.041,0-1.041-1.302,0-1.302H142.058z"/>
	<path fill="#3498DB" d="M148.435,98.01v9.589c0,0.954-1.432,0.954-1.432,0.044V81.306c0-0.434,0.304-0.736,0.738-0.736h10.934
		c7.332,0,11.063,4.121,11.063,9.023c0,4.686-3.123,7.983-9.458,8.46l8.981,9.242c0.694,0.737-0.217,1.693-0.911,0.998
		l-9.762-10.283H148.435z M148.435,96.752h10.283c6.725,0,9.632-3.211,9.545-7.159c-0.044-4.252-3.601-7.679-9.545-7.679h-10.283
		V96.752z"/>
	<path fill="#3498DB" d="M199.109,80.959c0-0.953,1.434-0.953,1.434-0.044v15.144c0,16.573-25.035,16.573-25.035,0V80.916
		c0-0.909,1.388-0.909,1.388,0.044v15.1c0,14.664,22.214,14.664,22.214,0V80.959z"/>
	<path fill="#3498DB" d="M228.742,81.22c0-1.085,1.476-1.085,1.476,0v26.118c0,1.042-0.955,1.042-1.52,0.347l-18.873-24.6v24.34
		c0,1.042-1.432,1.042-1.432,0V81.349c0-1.084,0.912-1.214,1.519-0.433l18.83,24.6V81.22z"/>
	<path fill="#3498DB" d="M258.549,81.22c0-1.085,1.475-1.085,1.475,0v26.118c0,1.042-0.955,1.042-1.52,0.347l-18.872-24.6v24.34
		c0,1.042-1.433,1.042-1.433,0V81.349c0-1.084,0.912-1.214,1.52-0.433l18.83,24.6V81.22z"/>
	<path fill="#3498DB" d="M269.481,106.819h19.177c0.912,0,0.912,1.388,0,1.388h-19.437c-0.694,0-1.172-0.521-1.172-1.171V81.741
		c0-0.608,0.478-1.128,1.172-1.128h19.48c0.868,0,0.868,1.302-0.044,1.302h-19.177V93.89h18.309c0.912,0,0.912,1.301,0,1.301
		h-18.309V106.819z"/>
	<path fill="#3498DB" d="M297.204,98.01v9.589c0,0.954-1.432,0.954-1.432,0.044V81.306c0-0.434,0.304-0.736,0.738-0.736h10.933
		c7.333,0,11.065,4.121,11.065,9.023c0,4.686-3.125,7.983-9.459,8.46l8.98,9.242c0.694,0.737-0.217,1.693-0.911,0.998l-9.762-10.283
		H297.204z M297.204,96.752h10.283c6.726,0,9.632-3.211,9.545-7.159c-0.044-4.252-3.601-7.679-9.545-7.679h-10.283V96.752z"/>
</g>
</svg>
